<svg xmlns="http://www.w3.org/2000/svg" xmlns:xlink="http://www.w3.org/1999/xlink" width="810" viewBox="0 0 810 810" height="810" version="1.0"><defs><clipPath id="d"><path d="M 0.398438 0.160156 L 31.839844 0.160156 L 31.839844 29.441406 L 0.398438 29.441406 Z M 0.398438 0.160156"/></clipPath><clipPath id="c"><path d="M0 0H32V30H0z"/></clipPath><clipPath id="g"><path d="M 0.238281 0.160156 L 31.441406 0.160156 L 31.441406 29.441406 L 0.238281 29.441406 Z M 0.238281 0.160156"/></clipPath><clipPath id="f"><path d="M0 0H32V30H0z"/></clipPath><clipPath id="j"><path d="M 0.160156 0.160156 L 31.359375 0.160156 L 31.359375 29.441406 L 0.160156 29.441406 Z M 0.160156 0.160156"/></clipPath><clipPath id="i"><path d="M0 0H32V30H0z"/></clipPath><mask id="b"><g filter="url(#a)"><path fill-opacity=".898" d="M-81 -81H891V891H-81z"/></g></mask><mask id="e"><g filter="url(#a)"><path fill-opacity=".898" d="M-81 -81H891V891H-81z"/></g></mask><mask id="h"><g filter="url(#a)"><path fill-opacity=".898" d="M-81 -81H891V891H-81z"/></g></mask><filter x="0%" y="0%" width="100%" xmlns:xlink="http://www.w3.org/1999/xlink" xlink:type="simple" xlink:actuate="onLoad" height="100%" id="a" xlink:show="other"><feColorMatrix values="0 0 0 0 1 0 0 0 0 1 0 0 0 0 1 0 0 0 1 0" color-interpolation-filters="sRGB"/></filter></defs><g fill="#FFF"><g><g><path d="M 31.148438 1.820312 C 48.929688 1.820312 60.128906 -8.191406 60.128906 -24.5 C 60.128906 -40.808594 48.929688 -50.816406 31.148438 -50.816406 C 13.371094 -50.816406 2.171875 -40.808594 2.171875 -24.5 C 2.171875 -8.191406 13.371094 1.820312 31.148438 1.820312 Z M 31.148438 -13.160156 C 24.21875 -13.160156 20.089844 -17.289062 20.089844 -24.5 C 20.089844 -31.707031 24.21875 -35.839844 31.148438 -35.839844 C 38.078125 -35.839844 42.277344 -31.707031 42.277344 -24.5 C 42.277344 -17.289062 38.078125 -13.160156 31.148438 -13.160156 Z M 31.148438 -13.160156" transform="translate(208.788 340.374)"/></g></g></g><g fill="#FFF"><g><g><path d="M 23.167969 0 L 23.167969 -15.609375 L 44.097656 -15.609375 L 44.097656 -28.347656 L 23.167969 -28.347656 L 23.167969 -35 L 49.277344 -35 L 48.507812 -49 L 4.828125 -49 L 4.828125 0 Z M 23.167969 0" transform="translate(271.084 340.374)"/></g></g></g><g fill="#FFF"><g><g><path d="M 23.167969 0 L 23.167969 -15.609375 L 44.097656 -15.609375 L 44.097656 -28.347656 L 23.167969 -28.347656 L 23.167969 -35 L 49.277344 -35 L 48.507812 -49 L 4.828125 -49 L 4.828125 0 Z M 23.167969 0" transform="translate(322.601 340.374)"/></g></g></g><g fill="#FFF"><g><g><path d="M 23.238281 0 L 23.238281 -49 L 4.898438 -49 L 4.898438 0 Z M 23.238281 0" transform="translate(374.119 340.374)"/></g></g></g><g fill="#FFF"><g><g><path d="M 31.007812 1.398438 C 39.617188 1.398438 46.410156 -0.980469 50.257812 -3.21875 L 50.257812 -19.949219 L 50.117188 -19.949219 C 44.726562 -15.960938 39.546875 -13.789062 33.179688 -13.789062 C 29.609375 -13.789062 26.597656 -14.699219 24.148438 -16.449219 C 21.699219 -18.269531 20.507812 -20.929688 20.507812 -24.5 C 20.507812 -31.429688 25.898438 -35.277344 33.25 -35.277344 C 39.410156 -35.277344 44.449219 -33.039062 50.117188 -29.1875 L 50.257812 -29.1875 L 50.257812 -45.707031 C 45.570312 -48.296875 39.546875 -50.398438 31.148438 -50.398438 C 13.929688 -50.398438 2.171875 -40.667969 2.171875 -24.359375 C 2.171875 -7.980469 13.160156 1.398438 31.007812 1.398438 Z M 31.007812 1.398438" transform="translate(402.187 340.374)"/></g></g></g><g fill="#FFF"><g><g><path d="M 50.1875 0 L 50.957031 -13.859375 L 23.027344 -13.859375 L 23.027344 -18.621094 L 43.957031 -18.621094 L 43.957031 -30.519531 L 23.027344 -30.519531 L 23.027344 -35.140625 L 50.257812 -35.140625 L 49.488281 -49 L 4.828125 -49 L 4.828125 0 Z M 50.1875 0" transform="translate(456.504 340.374)"/></g></g></g><g fill="#FFF"><g><g><path d="M 11.851562 0.691406 C 18.617188 0.691406 22.878906 -3.117188 22.878906 -9.324219 C 22.878906 -15.527344 18.617188 -19.339844 11.851562 -19.339844 C 5.085938 -19.339844 0.824219 -15.527344 0.824219 -9.324219 C 0.824219 -3.117188 5.085938 0.691406 11.851562 0.691406 Z M 11.851562 -5.007812 C 9.214844 -5.007812 7.644531 -6.578125 7.644531 -9.324219 C 7.644531 -12.066406 9.214844 -13.636719 11.851562 -13.636719 C 14.492188 -13.636719 16.089844 -12.066406 16.089844 -9.324219 C 16.089844 -6.578125 14.492188 -5.007812 11.851562 -5.007812 Z M 11.851562 -5.007812" transform="translate(546.847 313.065)"/></g></g></g><g fill="#FFF"><g><g><path d="M 8.816406 0 L 8.816406 -5.941406 L 16.78125 -5.941406 L 16.78125 -10.789062 L 8.816406 -10.789062 L 8.816406 -13.316406 L 18.753906 -13.316406 L 18.460938 -18.644531 L 1.839844 -18.644531 L 1.839844 0 Z M 8.816406 0" transform="translate(570.553 313.065)"/></g></g></g><g fill="#FFF"><g><g><path d="M 13.984375 0 L 13.984375 -12.945312 L 20.324219 -12.945312 L 20.03125 -18.644531 L 0.957031 -18.644531 L 0.664062 -12.945312 L 7.003906 -12.945312 L 7.003906 0 Z M 13.984375 0" transform="translate(535.778 341.718)"/></g></g></g><g fill="#FFF"><g><g><path d="M 8.816406 0 L 8.816406 -6.605469 L 15.15625 -6.605469 L 15.15625 0 L 22.136719 0 L 22.136719 -18.644531 L 15.15625 -18.644531 L 15.15625 -12.253906 L 8.816406 -12.253906 L 8.816406 -18.644531 L 1.839844 -18.644531 L 1.839844 0 Z M 8.816406 0" transform="translate(556.767 341.718)"/></g></g></g><g fill="#FFF"><g><g><path d="M 19.097656 0 L 19.390625 -5.273438 L 8.761719 -5.273438 L 8.761719 -7.085938 L 16.726562 -7.085938 L 16.726562 -11.613281 L 8.761719 -11.613281 L 8.761719 -13.371094 L 19.125 -13.371094 L 18.832031 -18.644531 L 1.839844 -18.644531 L 1.839844 0 Z M 19.097656 0" transform="translate(580.74 341.718)"/></g></g></g><g fill="#FFF"><g><g><path d="M 33.820312 1.976562 C 53.121094 1.976562 65.28125 -8.890625 65.28125 -26.597656 C 65.28125 -44.304688 53.121094 -55.175781 33.820312 -55.175781 C 14.515625 -55.175781 2.355469 -44.304688 2.355469 -26.597656 C 2.355469 -8.890625 14.515625 1.976562 33.820312 1.976562 Z M 33.820312 -14.289062 C 26.296875 -14.289062 21.8125 -18.769531 21.8125 -26.597656 C 21.8125 -34.425781 26.296875 -38.910156 33.820312 -38.910156 C 41.34375 -38.910156 45.902344 -34.425781 45.902344 -26.597656 C 45.902344 -18.769531 41.34375 -14.289062 33.820312 -14.289062 Z M 33.820312 -14.289062" transform="translate(38.092 429.274)"/></g></g></g><g fill="#FFF"><g><g><path d="M 25.15625 0 L 25.15625 -12.464844 L 32.375 -12.464844 L 40.960938 0 L 63 0 L 51.222656 -16.414062 C 57.300781 -19.457031 60.570312 -25.230469 60.570312 -33.4375 C 60.570312 -46.207031 53.351562 -53.199219 38.757812 -53.199219 L 5.242188 -53.199219 L 5.242188 0 Z M 25.15625 -38.304688 L 35.109375 -38.304688 C 39.441406 -38.304688 41.039062 -35.871094 41.039062 -32.601562 C 41.039062 -29.335938 39.441406 -26.828125 35.109375 -26.828125 L 25.15625 -26.828125 Z M 25.15625 -38.304688" transform="translate(105.728 429.274)"/></g></g></g><g fill="#FFF"><g><g><path d="M 54.488281 0 L 55.328125 -15.046875 L 25.003906 -15.046875 L 25.003906 -20.214844 L 47.726562 -20.214844 L 47.726562 -33.136719 L 25.003906 -33.136719 L 25.003906 -38.152344 L 54.566406 -38.152344 L 53.730469 -53.199219 L 5.242188 -53.199219 L 5.242188 0 Z M 54.488281 0" transform="translate(169.413 429.274)"/></g></g></g><g fill="#FFF"><g><g><path d="M 33.894531 1.824219 C 52.363281 1.824219 63.609375 -7.066406 63.609375 -24.394531 C 63.609375 -26.902344 63.457031 -29.5625 63.230469 -31.765625 L 32.148438 -31.765625 L 32.148438 -19.152344 L 46.054688 -19.152344 C 45.828125 -17.023438 44.761719 -15.503906 42.710938 -14.589844 C 40.734375 -13.679688 38.53125 -13.222656 36.097656 -13.222656 C 27.28125 -13.222656 22.417969 -17.480469 22.417969 -25.382812 C 22.417969 -34.199219 27.890625 -38.910156 38 -38.910156 C 44.609375 -38.910156 50.234375 -37.464844 57 -34.425781 L 57.074219 -34.425781 L 57.074219 -50.691406 C 51.90625 -53.425781 44.15625 -54.945312 36.554688 -54.945312 C 14.742188 -54.945312 2.28125 -42.558594 2.28125 -25.6875 C 2.28125 -8.359375 14.136719 1.824219 33.894531 1.824219 Z M 33.894531 1.824219" transform="translate(227.854 429.274)"/></g></g></g><g fill="#FFF"><g><g><path d="M 33.820312 1.976562 C 53.121094 1.976562 65.28125 -8.890625 65.28125 -26.597656 C 65.28125 -44.304688 53.121094 -55.175781 33.820312 -55.175781 C 14.515625 -55.175781 2.355469 -44.304688 2.355469 -26.597656 C 2.355469 -8.890625 14.515625 1.976562 33.820312 1.976562 Z M 33.820312 -14.289062 C 26.296875 -14.289062 21.8125 -18.769531 21.8125 -26.597656 C 21.8125 -34.425781 26.296875 -38.910156 33.820312 -38.910156 C 41.34375 -38.910156 45.902344 -34.425781 45.902344 -26.597656 C 45.902344 -18.769531 41.34375 -14.289062 33.820312 -14.289062 Z M 33.820312 -14.289062" transform="translate(293.439 429.274)"/></g></g></g><g fill="#FFF"><g><g><path d="M 23.9375 0 L 23.9375 -25.839844 L 24.089844 -25.839844 L 43.621094 0 L 63.304688 0 L 63.304688 -53.199219 L 44.609375 -53.199219 L 44.609375 -27.738281 L 44.457031 -27.738281 L 25.15625 -53.199219 L 5.242188 -53.199219 L 5.242188 0 Z M 23.9375 0" transform="translate(361.075 429.274)"/></g></g></g><g fill="#FFF"><g><g><path d="M 41.796875 0 L 41.796875 -15.730469 L 64.597656 -53.199219 L 43.242188 -53.199219 L 32.375 -34.121094 L 31.691406 -34.121094 L 20.898438 -53.199219 L -0.910156 -53.199219 L 21.886719 -15.730469 L 21.886719 0 Z M 41.796875 0" transform="translate(445.963 429.274)"/></g></g></g><g fill="#FFF"><g><g><path d="M 33.820312 1.976562 C 53.121094 1.976562 65.28125 -8.890625 65.28125 -26.597656 C 65.28125 -44.304688 53.121094 -55.175781 33.820312 -55.175781 C 14.515625 -55.175781 2.355469 -44.304688 2.355469 -26.597656 C 2.355469 -8.890625 14.515625 1.976562 33.820312 1.976562 Z M 33.820312 -14.289062 C 26.296875 -14.289062 21.8125 -18.769531 21.8125 -26.597656 C 21.8125 -34.425781 26.296875 -38.910156 33.820312 -38.910156 C 41.34375 -38.910156 45.902344 -34.425781 45.902344 -26.597656 C 45.902344 -18.769531 41.34375 -14.289062 33.820312 -14.289062 Z M 33.820312 -14.289062" transform="translate(509.648 429.274)"/></g></g></g><g fill="#FFF"><g><g><path d="M 33.136719 2.050781 C 50.691406 2.050781 61.632812 -3.953125 61.632812 -21.203125 L 61.632812 -53.199219 L 41.722656 -53.199219 L 41.722656 -22.953125 C 41.722656 -16.871094 38.074219 -15.125 33.136719 -15.125 C 28.269531 -15.125 24.625 -16.871094 24.625 -23.027344 L 24.625 -53.199219 L 4.710938 -53.199219 L 4.710938 -21.203125 C 4.710938 -3.953125 15.65625 2.050781 33.136719 2.050781 Z M 33.136719 2.050781" transform="translate(577.284 429.274)"/></g></g></g><g fill="#FFF"><g><g><path d="M 39.898438 0 L 39.898438 -36.933594 L 57.984375 -36.933594 L 57.148438 -53.199219 L 2.734375 -53.199219 L 1.898438 -36.933594 L 19.988281 -36.933594 L 19.988281 0 Z M 39.898438 0" transform="translate(643.629 429.274)"/></g></g></g><g fill="#FFF"><g><g><path d="M 25.15625 0 L 25.15625 -18.847656 L 43.242188 -18.847656 L 43.242188 0 L 63.152344 0 L 63.152344 -53.199219 L 43.242188 -53.199219 L 43.242188 -34.957031 L 25.15625 -34.957031 L 25.15625 -53.199219 L 5.242188 -53.199219 L 5.242188 0 Z M 25.15625 0" transform="translate(703.514 429.274)"/></g></g></g><g fill="#FFF"><g><g><path d="M 33.894531 1.824219 C 52.363281 1.824219 63.609375 -7.066406 63.609375 -24.394531 C 63.609375 -26.902344 63.457031 -29.5625 63.230469 -31.765625 L 32.148438 -31.765625 L 32.148438 -19.152344 L 46.054688 -19.152344 C 45.828125 -17.023438 44.761719 -15.503906 42.710938 -14.589844 C 40.734375 -13.679688 38.53125 -13.222656 36.097656 -13.222656 C 27.28125 -13.222656 22.417969 -17.480469 22.417969 -25.382812 C 22.417969 -34.199219 27.890625 -38.910156 38 -38.910156 C 44.609375 -38.910156 50.234375 -37.464844 57 -34.425781 L 57.074219 -34.425781 L 57.074219 -50.691406 C 51.90625 -53.425781 44.15625 -54.945312 36.554688 -54.945312 C 14.742188 -54.945312 2.28125 -42.558594 2.28125 -25.6875 C 2.28125 -8.359375 14.136719 1.824219 33.894531 1.824219 Z M 33.894531 1.824219" transform="translate(143.994 519.824)"/></g></g></g><g fill="#FFF"><g><g><path d="M 33.820312 1.976562 C 53.121094 1.976562 65.28125 -8.890625 65.28125 -26.597656 C 65.28125 -44.304688 53.121094 -55.175781 33.820312 -55.175781 C 14.515625 -55.175781 2.355469 -44.304688 2.355469 -26.597656 C 2.355469 -8.890625 14.515625 1.976562 33.820312 1.976562 Z M 33.820312 -14.289062 C 26.296875 -14.289062 21.8125 -18.769531 21.8125 -26.597656 C 21.8125 -34.425781 26.296875 -38.910156 33.820312 -38.910156 C 41.34375 -38.910156 45.902344 -34.425781 45.902344 -26.597656 C 45.902344 -18.769531 41.34375 -14.289062 33.820312 -14.289062 Z M 33.820312 -14.289062" transform="translate(209.579 519.824)"/></g></g></g><g fill="#FFF"><g><g><path d="M 48.867188 0 L 66.042969 -53.199219 L 44.761719 -53.199219 L 34.351562 -17.859375 L 32.753906 -17.859375 L 22.265625 -53.199219 L 0.761719 -53.199219 L 17.933594 0 Z M 48.867188 0" transform="translate(277.215 519.824)"/></g></g></g><g fill="#FFF"><g><g><path d="M 54.488281 0 L 55.328125 -15.046875 L 25.003906 -15.046875 L 25.003906 -20.214844 L 47.726562 -20.214844 L 47.726562 -33.136719 L 25.003906 -33.136719 L 25.003906 -38.152344 L 54.566406 -38.152344 L 53.730469 -53.199219 L 5.242188 -53.199219 L 5.242188 0 Z M 54.488281 0" transform="translate(344.016 519.824)"/></g></g></g><g fill="#FFF"><g><g><path d="M 25.15625 0 L 25.15625 -12.464844 L 32.375 -12.464844 L 40.960938 0 L 63 0 L 51.222656 -16.414062 C 57.300781 -19.457031 60.570312 -25.230469 60.570312 -33.4375 C 60.570312 -46.207031 53.351562 -53.199219 38.757812 -53.199219 L 5.242188 -53.199219 L 5.242188 0 Z M 25.15625 -38.304688 L 35.109375 -38.304688 C 39.441406 -38.304688 41.039062 -35.871094 41.039062 -32.601562 C 41.039062 -29.335938 39.441406 -26.828125 35.109375 -26.828125 L 25.15625 -26.828125 Z M 25.15625 -38.304688" transform="translate(402.457 519.824)"/></g></g></g><g fill="#FFF"><g><g><path d="M 23.9375 0 L 23.9375 -25.839844 L 24.089844 -25.839844 L 43.621094 0 L 63.304688 0 L 63.304688 -53.199219 L 44.609375 -53.199219 L 44.609375 -27.738281 L 44.457031 -27.738281 L 25.15625 -53.199219 L 5.242188 -53.199219 L 5.242188 0 Z M 23.9375 0" transform="translate(466.142 519.824)"/></g></g></g><g fill="#FFF"><g><g><path d="M 33.820312 1.976562 C 53.121094 1.976562 65.28125 -8.890625 65.28125 -26.597656 C 65.28125 -44.304688 53.121094 -55.175781 33.820312 -55.175781 C 14.515625 -55.175781 2.355469 -44.304688 2.355469 -26.597656 C 2.355469 -8.890625 14.515625 1.976562 33.820312 1.976562 Z M 33.820312 -14.289062 C 26.296875 -14.289062 21.8125 -18.769531 21.8125 -26.597656 C 21.8125 -34.425781 26.296875 -38.910156 33.820312 -38.910156 C 41.34375 -38.910156 45.902344 -34.425781 45.902344 -26.597656 C 45.902344 -18.769531 41.34375 -14.289062 33.820312 -14.289062 Z M 33.820312 -14.289062" transform="translate(534.69 519.824)"/></g></g></g><g fill="#FFF"><g><g><path d="M 25.15625 0 L 25.15625 -12.464844 L 32.375 -12.464844 L 40.960938 0 L 63 0 L 51.222656 -16.414062 C 57.300781 -19.457031 60.570312 -25.230469 60.570312 -33.4375 C 60.570312 -46.207031 53.351562 -53.199219 38.757812 -53.199219 L 5.242188 -53.199219 L 5.242188 0 Z M 25.15625 -38.304688 L 35.109375 -38.304688 C 39.441406 -38.304688 41.039062 -35.871094 41.039062 -32.601562 C 41.039062 -29.335938 39.441406 -26.828125 35.109375 -26.828125 L 25.15625 -26.828125 Z M 25.15625 -38.304688" transform="translate(602.327 519.824)"/></g></g></g><g mask="url(#b)"><g><g clip-path="url(#c)" transform="translate(350 542)"><g clip-path="url(#d)"><path fill="#E0C288" d="M 16.652344 0.507812 L 20.980469 9.273438 C 21.046875 9.425781 21.199219 9.535156 21.375 9.558594 L 31.066406 10.960938 C 31.484375 11.027344 31.660156 11.550781 31.351562 11.835938 L 24.34375 18.648438 C 24.210938 18.761719 24.167969 18.933594 24.1875 19.109375 L 25.835938 28.75 C 25.902344 29.167969 25.464844 29.496094 25.089844 29.296875 L 16.410156 24.742188 C 16.257812 24.652344 16.082031 24.652344 15.925781 24.742188 L 7.246094 29.296875 C 6.875 29.496094 6.433594 29.167969 6.5 28.75 L 8.148438 19.109375 C 8.171875 18.933594 8.125 18.78125 7.996094 18.648438 L 1.007812 11.835938 C 0.699219 11.53125 0.875 11.027344 1.292969 10.960938 L 10.984375 9.558594 C 11.160156 9.535156 11.289062 9.425781 11.378906 9.273438 L 15.707031 0.507812 C 15.90625 0.136719 16.453125 0.136719 16.652344 0.507812 Z M 16.652344 0.507812"/></g></g></g></g><g mask="url(#e)"><g><g clip-path="url(#f)" transform="translate(390 542)"><g clip-path="url(#g)"><path fill="#E0C288" d="M 16.441406 0.507812 L 20.773438 9.273438 C 20.835938 9.425781 20.992188 9.535156 21.167969 9.558594 L 30.859375 10.960938 C 31.273438 11.027344 31.449219 11.550781 31.144531 11.835938 L 24.132812 18.648438 C 24 18.761719 23.957031 18.933594 23.980469 19.109375 L 25.628906 28.75 C 25.695312 29.167969 25.253906 29.496094 24.878906 29.296875 L 16.203125 24.742188 C 16.046875 24.652344 15.871094 24.652344 15.71875 24.742188 L 7.039062 29.296875 C 6.664062 29.496094 6.226562 29.167969 6.292969 28.75 L 7.9375 19.109375 C 7.960938 18.933594 7.917969 18.78125 7.785156 18.648438 L 0.796875 11.835938 C 0.492188 11.53125 0.667969 11.027344 1.082031 10.960938 L 10.773438 9.558594 C 10.949219 9.535156 11.082031 9.425781 11.167969 9.273438 L 15.5 0.507812 C 15.695312 0.136719 16.246094 0.136719 16.441406 0.507812 Z M 16.441406 0.507812"/></g></g></g></g><g mask="url(#h)"><g><g clip-path="url(#i)" transform="translate(428 542)"><g clip-path="url(#j)"><path fill="#E0C288" d="M 16.359375 0.507812 L 20.6875 9.273438 C 20.753906 9.425781 20.90625 9.535156 21.082031 9.558594 L 30.773438 10.960938 C 31.191406 11.027344 31.367188 11.550781 31.058594 11.835938 L 24.050781 18.648438 C 23.917969 18.761719 23.875 18.933594 23.894531 19.109375 L 25.542969 28.75 C 25.609375 29.167969 25.167969 29.496094 24.796875 29.296875 L 16.117188 24.742188 C 15.964844 24.652344 15.789062 24.652344 15.632812 24.742188 L 6.953125 29.296875 C 6.582031 29.496094 6.140625 29.167969 6.207031 28.75 L 7.855469 19.109375 C 7.875 18.933594 7.832031 18.78125 7.699219 18.648438 L 0.714844 11.835938 C 0.40625 11.53125 0.582031 11.027344 1 10.960938 L 10.6875 9.558594 C 10.863281 9.535156 10.996094 9.425781 11.085938 9.273438 L 15.414062 0.507812 C 15.613281 0.136719 16.160156 0.136719 16.359375 0.507812 Z M 16.359375 0.507812"/></g></g></g></g></svg>